<svg width="40" height="40" viewBox="0 0 40 40" fill="none" xmlns="http://www.w3.org/2000/svg">
<path d="M33.0226 18.9156L32.5312 16.1844L31.7122 11.5252L31.5484 10.7219C31.4665 9.99894 31.2208 9.3563 30.8113 8.71365C29.8284 7.02672 27.9447 5.98242 25.6515 5.98242H11.2368L11.5644 7.91035C12.0558 10.5613 13.9396 12.3285 16.7242 12.5695C16.888 13.5335 17.2975 14.4974 17.9527 15.3007C18.6079 16.104 19.427 16.6664 20.3279 16.9073C20.9012 17.068 21.4745 17.2287 22.0478 17.2287C22.5392 20.1206 24.7505 21.8878 27.8628 21.8878H30.6474C30.8113 21.8878 30.9751 21.8878 31.2208 21.8075C31.7941 21.6468 32.3674 21.2452 32.695 20.6829C33.0226 20.2009 33.1045 19.5582 33.0226 18.9156Z" fill="black"/>
<path d="M30.7302 19.9597C30.6483 19.9597 30.6483 19.9597 30.5664 19.9597H27.7817C25.7342 19.9597 24.2599 18.9154 23.7685 17.1482H25.9799V15.3006H22.3762C21.8029 15.3006 21.2296 15.2202 20.6563 15.0596C20.083 14.8989 19.5916 14.5776 19.1821 14.0956C18.7725 13.694 18.5268 13.1316 18.363 12.489H23.0314V10.5611H17.2164C15.1689 10.5611 13.6947 9.51678 13.2032 7.74951H25.6523C27.2903 7.74951 28.6007 8.39215 29.2559 9.51678C29.5016 9.91843 29.6654 10.4004 29.7473 10.8824L29.9111 11.6857L30.7302 16.3449L31.2216 19.1564C31.2216 19.3171 31.2216 19.4777 31.1397 19.6384C31.0578 19.8794 30.894 19.9597 30.7302 19.9597Z" fill="white"/>
<path d="M17.544 32.2502C19.3458 33.1339 21.3114 33.6159 23.2771 33.6159C29.993 33.6159 35.3985 28.3944 35.3985 22.0483C35.3985 15.6219 29.993 10.4807 23.2771 10.4807C21.2295 10.4807 19.182 10.9627 17.3802 11.9267C17.2164 12.007 16.9707 12.1677 16.8069 12.248C16.725 12.248 16.7249 12.248 16.7249 12.3283C15.1688 13.2119 13.8584 14.5776 12.9575 16.1038C12.0566 17.6301 11.4014 19.4777 11.3195 21.3253C11.3195 21.5663 11.3195 21.8073 11.3195 22.0483C11.3195 22.2893 11.3195 22.4499 11.3195 22.6106C11.3195 22.6909 11.3195 22.7713 11.3195 22.8516C11.4833 24.7795 12.1385 26.6271 13.2032 28.2337L11.9747 34.1782L17.544 32.2502Z" fill="#FFE55F"/>
<path d="M10.8269 35.6242L12.0554 28.5551C10.9907 26.8682 10.4173 25.0206 10.2535 23.0123C10.2535 22.932 10.2535 22.7713 10.2535 22.691C10.2535 22.45 10.2535 22.2894 10.2535 22.0484C10.2535 21.8074 10.2535 21.5664 10.2535 21.2451C10.4173 19.2368 10.9907 17.3089 12.0554 15.6219C13.1201 13.935 14.5124 12.4891 16.1504 11.5251C16.2323 11.5251 16.2323 11.4448 16.3142 11.4448C16.478 11.2841 16.7238 11.2038 16.9695 11.1234C18.9351 10.0791 21.0645 9.59717 23.2759 9.59717C30.4832 9.59717 36.2982 15.2203 36.2982 22.1287C36.2982 29.0371 30.4832 34.6602 23.2759 34.6602C21.3102 34.6602 19.3446 34.1783 17.4609 33.375L10.8269 35.6242ZM23.2759 11.4448C21.3921 11.4448 19.5084 11.9267 17.7885 12.8104C17.6247 12.8907 17.4609 12.971 17.2152 13.1317L17.1333 13.212C15.7409 14.0153 14.5124 15.2203 13.6115 16.6662C12.7106 18.1122 12.2192 19.7188 12.0554 21.4861C12.0554 21.727 12.0554 21.8877 12.0554 22.1287C12.0554 22.2894 12.0554 22.45 12.0554 22.6107V22.691V22.7713V22.8517C12.2192 24.6189 12.7925 26.3059 13.7753 27.7518L14.021 28.0731L13.202 32.8126L17.6247 31.2864L17.9523 31.447C19.5903 32.3307 21.474 32.7323 23.2759 32.7323C29.4185 32.7323 34.4964 27.9928 34.4964 22.1287C34.4964 16.2646 29.4185 11.4448 23.2759 11.4448Z" fill="black"/>
<path d="M24.095 14.6579L23.6855 12.248L23.276 9.99878" fill="white"/>
<path d="M15.0043 14.6579C14.3491 14.6579 13.6939 14.5776 13.0386 14.3366C12.3015 14.0956 11.5644 13.6136 11.073 12.971C10.5816 12.3284 10.1721 11.5251 10.0902 10.7218L9.92639 9.91846" fill="white"/>
<path d="M15.6589 9.99876H9.76198C7.14113 9.99876 5.2574 8.47248 4.84789 6.06257L4.76599 5.3396H18.2797C20.2454 5.3396 21.8015 6.1429 22.6205 7.58885C22.9481 8.07083 23.1119 8.63314 23.1938 9.27579L23.3576 10.0791" fill="white"/>
<path d="M25.4877 17.3089L24.9963 14.5777L24.1773 9.91853L24.0135 9.11522C23.9316 8.39225 23.6858 7.74961 23.2763 7.10696C22.2935 5.42003 20.4098 4.37573 18.1166 4.37573H3.7019L4.02951 6.30366C4.52092 8.95456 6.40465 10.7218 9.1893 10.9628C9.3531 11.9268 9.76261 12.8907 10.4178 13.6941C11.073 14.4974 11.892 15.0597 12.793 15.3007C13.3663 15.4613 13.9396 15.622 14.5129 15.622C15.0043 18.5139 17.2156 20.2811 20.3279 20.2811H23.1125C23.2763 20.2811 23.4401 20.2811 23.6858 20.2008C24.2592 20.0401 24.8325 19.6385 25.1601 19.1565C25.4058 18.5942 25.5696 17.9516 25.4877 17.3089Z" fill="black"/>
<path d="M23.195 18.4336C23.1131 18.4336 23.1131 18.4336 23.0312 18.4336H20.2466C18.199 18.4336 16.7248 17.3893 16.2334 15.622H18.5266V13.7744H14.923C14.3497 13.7744 13.7763 13.6941 13.2849 13.5334C12.7116 13.3728 12.2202 13.0515 11.8107 12.5695C11.4012 12.1678 11.1555 11.6055 10.9917 10.9629H15.6601V9.03495H9.84508C7.71564 9.03495 6.24142 7.99066 5.83191 6.22339H18.2809C19.9189 6.22339 21.2294 6.86603 21.8846 7.99066C22.1303 8.39231 22.2941 8.87429 22.376 9.27594L22.5398 10.0792L23.3588 14.7384L23.8502 17.4696C23.8502 17.6303 23.8502 17.791 23.7683 17.9516C23.5226 18.2729 23.3588 18.3533 23.195 18.4336Z" fill="white"/>
<path d="M29.3368 20.2811C30.3196 20.2811 31.0567 19.4778 31.0567 18.5139C31.0567 17.5499 30.3196 16.7466 29.3368 16.7466C28.3539 16.7466 27.6168 17.5499 27.6168 18.5139C27.6168 19.4778 28.4358 20.2811 29.3368 20.2811Z" fill="black"/>
</svg>