<svg width="24" height="24" viewBox="0 0 24 24" fill="none" xmlns="http://www.w3.org/2000/svg">
<path fill-rule="evenodd" clip-rule="evenodd" d="M6.62981 9.17468L8.09695 10.6986L8.19109 10.793L8.2854 10.7121L8.78337 10.2266L14.3957 4.60286L14.4063 4.59223C14.4695 4.52959 14.5231 4.47647 14.3957 4.38708L12.0808 2.05397C12 1.97306 11.9461 1.98654 11.8788 2.05397L11.4213 2.52598L9.73891 4.23873L7.47773 6.53138L5.83578 8.20367V8.379L6.62981 9.17468ZM18.1641 8.12277C18.2584 8.21717 18.2584 8.2711 18.1641 8.36551L15.2435 11.2785C13.2785 13.2295 11.3225 15.1805 9.37541 17.1315L8.32557 18.1565L8.23143 18.2374L8.11035 18.1295L6.02414 16.0796L5.84917 15.9043C5.7415 15.8099 5.7415 15.7829 5.84917 15.675L7.54501 13.9758L13.3324 8.16322L15.6473 5.85708C15.7415 5.74919 15.7953 5.76267 15.8895 5.85708L18.1641 8.12277ZM21.408 11.3325L22.0001 11.9124C22.0001 12.0606 22.0001 12.0607 22.027 12.155L22.027 12.1551L18.5142 15.6615L14.5572 19.613L12.7538 21.4066L12.1884 21.9596L12.1078 22.027L12.0135 21.9596L9.63137 19.6265C9.57816 19.582 9.59507 19.5435 9.6128 19.503C9.62197 19.4821 9.63137 19.4607 9.63137 19.4377L10.9773 18.089L13.6691 15.3918L16.8721 12.2091L16.8736 12.2077C17.721 11.372 18.5684 10.5363 19.4024 9.68716C19.5505 9.5523 19.5506 9.5523 19.6986 9.68716L21.408 11.3325ZM4.57071 9.59274L6.91255 11.9258C6.91998 11.9445 6.92664 11.9605 6.93242 11.9744C6.96857 12.0615 6.97057 12.0663 6.91255 12.1012L4.83982 14.1376L4.55724 14.3938L4.4764 14.4613L4.36879 14.3669L2.32301 12.3574C2.2534 12.2787 2.17676 12.2065 2.09414 12.1416C2.03358 12.0809 2.0033 12.0506 2.0033 12.0203C2.0033 11.9899 2.03358 11.9596 2.09414 11.8989L3.77651 10.2131L4.38226 9.59274H4.57071Z" fill="#FFDD00"/>
</svg>
