<svg width="11" height="19" viewBox="0 0 11 19" fill="none" xmlns="http://www.w3.org/2000/svg">
<path d="M5.79982 8.4C3.52982 7.81 2.79982 7.2 2.79982 6.25C2.79982 5.16 3.80982 4.4 5.49982 4.4C7.27982 4.4 7.93982 5.25 7.99982 6.5H10.2098C10.1398 4.78 9.08982 3.2 6.99982 2.69V0.5H3.99982V2.66C2.05982 3.08 0.499824 4.34 0.499824 6.27C0.499824 8.58 2.40982 9.73 5.19982 10.4C7.69982 11 8.19982 11.88 8.19982 12.81C8.19982 13.5 7.70982 14.6 5.49982 14.6C3.43982 14.6 2.62982 13.68 2.51982 12.5H0.319824C0.439824 14.69 2.07982 15.92 3.99982 16.33V18.5H6.99982V16.35C8.94982 15.98 10.4998 14.85 10.4998 12.8C10.4998 9.96 8.06982 8.99 5.79982 8.4Z" fill="white"/>
</svg>
