<svg width="24" height="24" viewBox="0 0 24 24" fill="none" xmlns="http://www.w3.org/2000/svg">
<path d="M18.9983 19.7861V19.7955C16.9419 18.7136 14.8877 17.6279 12.8358 16.5387C12.6178 16.4226 12.3403 16.3168 12.0089 16.3162C11.6774 16.3157 11.3988 16.4205 11.1768 16.5399C9.1225 17.63 7.06356 18.7127 5 19.7879V11.9811V11.9653V11.9496V11.9338V11.918V11.9023V11.8865V11.8707V11.8549V11.8392V11.8234V11.8076V11.7918V11.7761V11.7603V11.7445V11.7288V11.713V11.6972V11.6814V11.6657V11.6499V11.6341V11.6183V11.6026V11.5868V11.571V11.5553V11.5395V11.5237V11.5079V11.4922V11.4764V11.4606V11.4448V11.4291V11.4133V11.3975V11.3818V11.366V11.3502V11.3344V11.3187V11.3029V11.2871V11.2713V11.2556V11.2398V11.224V11.2083V11.1925V11.1767V11.1609V11.1452V11.1294V11.1136V11.0978V11.0821V11.0663V11.0505V11.0348V11.019V11.0032V10.9874V10.9717V10.9559V10.9401V10.9243V10.9086V10.8928V10.877V10.8612V10.8455V10.8297V10.8139V10.7982V10.7824V10.7666V10.7508V10.7351V10.7193V10.7035V10.6877V10.672V10.6562V10.6404V10.6247V10.6089V10.5931V10.5773V10.5616V10.5458V10.53V10.5142V10.4985V10.4827V10.4669V10.4512V10.4354V10.4196V10.4038V10.3881V10.3723V10.3565V10.3407V10.325V10.3092V10.2934V10.2777V10.2619V10.2461V10.2303V10.2146V10.1988V10.183V10.1672V10.1515V10.1357V10.1199V10.1042V10.0884V10.0726V10.0568V10.0411V10.0253V10.0095V9.99374V9.97797V9.9622V9.94642V9.93065V9.91488V9.89911V9.88333V9.86756V9.85179V9.83601V9.82024V9.80447V9.7887V9.77292V9.75715V9.74138V9.7256V9.70983V9.69406V9.67829V9.66251V9.64674V9.63097V9.61519V9.59942V9.58365V9.56788V9.5521V9.53633V9.52056V9.50478V9.48901V9.47324V9.45747V9.44169V9.42592V9.41015V9.39437V9.3786V9.36283V9.34706V9.33128V9.31551V9.29974V9.28396V9.26819V9.25242V9.23665V9.22087V9.2051V9.18933V9.17355V9.15778V9.14201V9.12624V9.11046V9.09469V9.07892V9.06314V9.04737V9.0316V9.01583V9.00005V8.98428V8.96851V8.95273V8.93696V8.92119V8.90542V8.88964V8.87387V8.8581V8.84232V8.82655V8.81078V8.79501V8.77923V8.76346V8.74769V8.73191V8.71614V8.70037V8.6846V8.66882V8.65305V8.63728V8.6215V8.60573V8.58996V8.57419V8.55841V8.54264V8.52687V8.51109V8.49532V8.47955V8.46378V8.448V8.43223V8.41646V8.40068V8.38491V8.36914V8.35337V8.33759V8.32182V8.30605V8.29027V8.2745V8.25873V8.24296V8.22718V8.21141V8.19564V8.17986V8.16409V8.14832V8.13255V8.11677V8.101V8.08523V8.06945V8.05368V8.03791V8.02214V8.00636V7.99059V7.97482V7.95904V7.94327V7.9275V7.91173V7.89595V7.88018V7.86441V7.84863V7.83286V7.81709V7.80132V7.78554V7.76977V7.754V7.73822V7.72245V7.70668V7.69091V7.67513V7.65936V7.64359V7.62781V7.61204V7.59627V7.5805V7.56472V7.54895V7.53318V7.51741V7.50163V7.48586V7.47009V7.45431V7.43854V7.42277V7.40699V7.39122V7.37545V7.35968V7.3439V7.32813V7.31236V7.29659V7.28081V7.26504V7.24927V7.23349V7.21772V7.20195V7.18617V7.1704V7.15463V7.13886V7.12308V7.10731V7.09154V7.07577V7.05999V7.04422V7.02845V7.01267V6.9969V6.98113V6.96536V6.94958V6.93381V6.91804V6.90226V6.88649V6.87072V6.85495V6.83917V6.8234V6.80763V6.79185V6.77608V6.76031V6.74454V6.72876V6.71299V6.69722V6.68144V6.66567V6.6499V6.63413V6.61835V6.60258V6.58681V6.57103V6.55526V6.53949V6.52372V6.50794V6.49217V6.4764V6.46062V6.44485V6.42908V6.41331V6.39753V6.38176V6.36599V6.35021V6.33444V6.31867V6.3029V6.28712V6.27135V6.25558V6.2398V6.22403V6.20826V6.19249V6.17671V6.16094V6.14517V6.12939V6.11362V6.09785V6.08208V6.0663V6.05053V6.03476V6.01898V6.00321V5.98744V5.97167V5.95589V5.94012V5.92435V5.90857V5.8928V5.87703V5.86126V5.84548V5.82971V5.81394V5.79816V5.78239V5.76662V5.75085V5.73507V5.7193V5.70353V5.68775V5.67198V5.65621V5.64044V5.62466V5.60889V5.59312V5.57734V5.56157V5.5458V5.53003V5.51425V5.49848V5.48271V5.46693V5.45116V5.43539V5.41962V5.40384V5.38807V5.3723V5.35652V5.34075V5.32498V5.30921V5.29343V5.27766V5.26189V5.24611V5.23034V5.21457V5.1988V5.18302V5.16725V5.15148V5.1357V5.11993V5.10416V5.08839V5.07261V5.05684V5.04107V5.02529V5.00952V4.99375V4.97798V4.9622V4.94643V4.93066V4.91488V4.89911V4.88334V4.86757V4.85179V4.83602V4.82025V4.80447V4.7887V4.77293V4.75716V4.74138V4.72561V4.70984V4.69406V4.67829V4.66252V4.64675V4.63097V4.6152V4.59943V4.58365V4.56788V4.55211V4.53634V4.52056V4.50479V4.48902V4.47324V4.45747V4.4417V4.42593V4.41015V4.39438V4.37861V4.36283V4.34706V4.33129V4.31552V4.29974V4.28397V4.2682V4.25242V4.23665V4.22088V4.20511V4.18933V4.17356V4.15779V4.14201V4.12624V4.11047V4.0947V4.07892V4.06315V4.04738V4.0316V4.01583V4.00006V4H5.01914H5.0468H5.07445H5.10211H5.12976H5.15742H5.18507H5.21273H5.24038H5.26804H5.29569H5.32335H5.351H5.37866H5.40631H5.43397H5.46162H5.48928H5.51693H5.54459H5.57224H5.5999H5.62755H5.6552H5.68286H5.71051H5.73817H5.76582H5.79348H5.82113H5.84879H5.87644H5.9041H5.93175H5.95941H5.98706H6.01472H6.04237H6.07003H6.09768H6.12534H6.15299H6.18065H6.2083H6.23596H6.26361H6.29127H6.31892H6.34658H6.37423H6.40189H6.42954H6.4572H6.48485H6.51251H6.54016H6.56782H6.59547H6.62313H6.65078H6.67843H6.70609H6.73374H6.7614H6.78905H6.81671H6.84436H6.87202H6.89967H6.92733H6.95498H6.98264H7.01029H7.03795H7.0656H7.09326H7.12091H7.14857H7.17622H7.20388H7.23153H7.25919H7.28684H7.3145H7.34215H7.36981H7.39746H7.42512H7.45277H7.48043H7.50808H7.53574H7.56339H7.59105H7.6187H7.64636H7.67401H7.70166H7.72932H7.75697H7.78463H7.81228H7.83994H7.86759H7.89525H7.9229H7.95056H7.97821H8.00587H8.03352H8.06118H8.08883H8.11649H8.14414H8.1718H8.19945H8.22711H8.25476H8.28242H8.31007H8.33773H8.36538H8.39304H8.42069H8.44835H8.476H8.50366H8.53131H8.55897H8.58662H8.61428H8.64193H8.66959H8.69724H8.7249H8.75255H8.7802H8.80786H8.83551H8.86317H8.89082H8.91848H8.94613H8.97379H9.00144H9.0291H9.05675H9.08441H9.11206H9.13972H9.16737H9.19503H9.22268H9.25034H9.27799H9.30565H9.3333H9.36096H9.38861H9.41627H9.44392H9.47158H9.49923H9.52689H9.55454H9.5822H9.60985H9.63751H9.66516H9.69282H9.72047H9.74813H9.77578H9.80343H9.83109H9.85874H9.8864H9.91405H9.94171H9.96936H9.99702H10.0247H10.0523H10.08H10.1076H10.1353H10.1629H10.1906H10.2183H10.2459H10.2736H10.3012H10.3289H10.3565H10.3842H10.4118H10.4395H10.4672H10.4948H10.5225H10.5501H10.5778H10.6054H10.6331H10.6607H10.6884H10.716H10.7437H10.7714H10.799H10.8267H10.8543H10.882H10.9096H10.9373H10.9649H10.9926H11.0202H11.0479H11.0756H11.1032H11.1309H11.1585H11.1862H11.2138H11.2415H11.2691H11.2968H11.3245H11.3521H11.3798H11.4074H11.4351H11.4627H11.4904H11.518H11.5457H11.5733H11.601H11.6287H11.6563H11.684H11.7116H11.7393H11.7669H11.7946H11.8222H11.8499H11.8775H11.9052H11.9329H11.9605H11.9882H12.0158H12.0435H12.0711H12.0988H12.1264H12.1541H12.1818H12.2094H12.2371H12.2647H12.2924H12.32H12.3477H12.3753H12.403H12.4306H12.4583H12.486H12.5136H12.5413H12.5689H12.5966H12.6242H12.6519H12.6795H12.7072H12.7349H12.7625H12.7902H12.8178H12.8455H12.8731H12.9008H12.9284H12.9561H12.9837H13.0114H13.0391H13.0667H13.0944H13.122H13.1497H13.1773H13.205H13.2326H13.2603H13.2879H13.3156H13.3433H13.3709H13.3986H13.4262H13.4539H13.4815H13.5092H13.5368H13.5645H13.5922H13.6198H13.6475H13.6751H13.7028H13.7304H13.7581H13.7857H13.8134H13.841H13.8687H13.8964H13.924H13.9517H13.9793H14.007H14.0346H14.0623H14.0899H14.1176H14.1452H14.1729H14.2006H14.2282H14.2559H14.2835H14.3112H14.3388H14.3665H14.3941H14.4218H14.4495H14.4771H14.5048H14.5324H14.5601H14.5877H14.6154H14.643H14.6707H14.6983H14.726H14.7537H14.7813H14.809H14.8366H14.8643H14.8919H14.9196H14.9472H14.9749H15.0025H15.0302H15.0579H15.0855H15.1132H15.1408H15.1685H15.1961H15.2238H15.2514H15.2791H15.3068H15.3344H15.3621H15.3897H15.4174H15.445H15.4727H15.5003H15.528H15.5556H15.5833H15.611H15.6386H15.6663H15.6939H15.7216H15.7492H15.7769H15.8045H15.8322H15.8598H15.8875H15.9152H15.9428H15.9705H15.9981H16.0258H16.0534H16.0811H16.1087H16.1364H16.1641H16.1917H16.2194H16.247H16.2747H16.3023H16.33H16.3576H16.3853H16.4129H16.4406H16.4683H16.4959H16.5236H16.5512H16.5789H16.6065H16.6342H16.6618H16.6895H16.7172H16.7448H16.7725H16.8001H16.8278H16.8554H16.8831H16.9107H16.9384H16.966H16.9937H17.0214H17.049H17.0767H17.1043H17.132H17.1596H17.1873H17.2149H17.2426H17.2702H17.2979H17.3256H17.3532H17.3809H17.4085H17.4362H17.4638H17.4915H17.5191H17.5468H17.5745H17.6021H17.6298H17.6574H17.6851H17.7127H17.7404H17.768H17.7957H17.8233H17.851H17.8787H17.9063H17.934H17.9616H17.9893H18.0169H18.0446H18.0722H18.0999H18.1275H18.1552H18.1829H18.2105H18.2382H18.2658H18.2935H18.3211H18.3488H18.3764H18.4041H18.4318H18.4594H18.4871H18.5147H18.5424H18.57H18.5977H18.6253H18.653H18.6806H18.7083H18.736H18.7636H18.7913H18.8189H18.8466H18.8742H18.9019H18.9295H18.9572H18.9848H18.9983V4.01491V4.04677V4.07863V4.11049V4.14235V4.17421V4.20607V4.23793V4.26979V4.30165V4.33351V4.36537V4.39722V4.42908V4.46094V4.4928V4.52466V4.55652V4.58838V4.62024V4.6521V4.68396V4.71582V4.74768V4.77954V4.8114V4.84326V4.87512V4.90698V4.93884V4.9707V5.00256V5.03442V5.06628V5.09814V5.13V5.16186V5.19372V5.22558V5.25744V5.2893V5.32116V5.35302V5.38488V5.41674V5.4486V5.48046V5.51232V5.54418V5.57604V5.60789V5.63975V5.67161V5.70347V5.73533V5.76719V5.79905V5.83091V5.86277V5.89463V5.92649V5.95835V5.99021V6.02207V6.05393V6.08579V6.11765V6.14951V6.18137V6.21323V6.24509V6.27695V6.30881V6.34067V6.37253V6.40439V6.43625V6.46811V6.49997V6.53183V6.56369V6.59555V6.62741V6.65927V6.69113V6.72299V6.75485V6.78671V6.81857V6.85043V6.88229V6.91415V6.94601V6.97787V7.00973V7.04159V7.07345V7.10531V7.13718V7.16904V7.2009V7.23276V7.26462V7.29648V7.32834V7.3602V7.39206V7.42392V7.45578V7.48764V7.5195V7.55136V7.58322V7.61508V7.64694V7.6788V7.71066V7.74252V7.77438V7.80624V7.8381V7.86996V7.90182V7.93368V7.96554V7.9974V8.02926V8.06112V8.09298V8.12484V8.1567V8.18856V8.22042V8.25228V8.28414V8.316V8.34787V8.37973V8.41159V8.44345V8.47531V8.50717V8.53903V8.57089V8.60275V8.63461V8.66647V8.69833V8.73019V8.76205V8.79391V8.82577V8.85763V8.88949V8.92135V8.95321V8.98507V9.01693V9.0488V9.08066V9.11252V9.14438V9.17624V9.2081V9.23996V9.27182V9.30368V9.33554V9.3674V9.39926V9.43112V9.46298V9.49484V9.5267V9.55856V9.59042V9.62229V9.65415V9.68601V9.71787V9.74973V9.78159V9.81345V9.84531V9.87717V9.90903V9.94089V9.97275V10.0046V10.0365V10.0683V10.1002V10.1321V10.1639V10.1958V10.2276V10.2595V10.2914V10.3232V10.3551V10.3869V10.4188V10.4507V10.4825V10.5144V10.5462V10.5781V10.61V10.6418V10.6737V10.7056V10.7374V10.7693V10.8011V10.833V10.8649V10.8967V10.9286V10.9604V10.9923V11.0242V11.056V11.0879V11.1197V11.1516V11.1835V11.2153V11.2472V11.279V11.3109V11.3428V11.3746V11.4065V11.4384V11.4702V11.5021V11.5339V11.5658V11.5977V11.6295V11.6614V11.6932V11.7251V11.757V11.7888V11.8207V11.8525V11.8844V11.9163V11.9481V11.98V12.0118V12.0437V12.0756V12.1074V12.1393V12.1712V12.203V12.2349V12.2667V12.2986V12.3305V12.3623V12.3942V12.426V12.4579V12.4898V12.5216V12.5535V12.5854V12.6172V12.6491V12.6809V12.7128V12.7447V12.7765V12.8084V12.8402V12.8721V12.904V12.9358V12.9677V12.9995V13.0314V13.0633V13.0951V13.127V13.1589V13.1907V13.2226V13.2544V13.2863V13.3182V13.35V13.3819V13.4137V13.4456V13.4775V13.5093V13.5412V13.5731V13.6049V13.6368V13.6686V13.7005V13.7324V13.7642V13.7961V13.8279V13.8598V13.8917V13.9235V13.9554V13.9872V14.0191V14.051V14.0828V14.1147V14.1466V14.1784V14.2103V14.2421V14.274V14.3059V14.3377V14.3696V14.4014V14.4333V14.4652V14.497V14.5289V14.5608V14.5926V14.6245V14.6563V14.6882V14.7201V14.7519V14.7838V14.8156V14.8475V14.8794V14.9112V14.9431V14.975V15.0068V15.0387V15.0705V15.1024V15.1343V15.1661V15.198V15.2299V15.2617V15.2936V15.3254V15.3573V15.3892V15.421V15.4529V15.4847V15.5166V15.5485V15.5803V15.6122V15.6441V15.6759V15.7078V15.7396V15.7715V15.8034V15.8352V15.8671V15.8989V15.9308V15.9627V15.9945V16.0264V16.0583V16.0901V16.122V16.1538V16.1857V16.2176V16.2494V16.2813V16.3132V16.345V16.3769V16.4087V16.4406V16.4725V16.5043V16.5362V16.568V16.5999V16.6318V16.6636V16.6955V16.7274V16.7592V16.7911V16.8229V16.8548V16.8867V16.9185V16.9504V16.9823V17.0141V17.046V17.0778V17.1097V17.1416V17.1734V17.2053V17.2372V17.269V17.3009V17.3327V17.3646V17.3965V17.4283V17.4602V17.492V17.5239V17.5558V17.5876V17.6195V17.6514V17.6832V17.7151V17.7469V17.7788V17.8107V17.8425V17.8744V17.9063V17.9381V17.97V18.0018V18.0337V18.0656V18.0974V18.1293V18.1612V18.193V18.2249V18.2567V18.2886V18.3205V18.3523V18.3842V18.4161V18.4479V18.4798V18.5116V18.5435V18.5754V18.6072V18.6391V18.671V18.7028V18.7347V18.7665V18.7984V18.8303V18.8621V18.894V18.9258V18.9577V18.9896V19.0214V19.0533V19.0852V19.117V19.1489V19.1807V19.2126V19.2445V19.2763V19.3082V19.3401V19.3719V19.4038V19.4356V19.4675V19.4994V19.5312V19.5631V19.595V19.6268V19.6587V19.6905V19.7224V19.7543V19.7861Z" stroke="white" stroke-width="2"/>
</svg>
