<svg width="32" height="32" viewBox="0 0 32 32" fill="none" xmlns="http://www.w3.org/2000/svg">
<rect opacity="0.4" width="32" height="32" rx="8" fill="black"/>
<path d="M15.625 13.75C15.625 14.2471 15.4279 14.725 15.0764 15.0764C14.725 15.4279 14.2471 15.625 13.75 15.625C13.2529 15.625 12.775 15.4279 12.4236 15.0764C12.0721 14.725 11.875 14.2471 11.875 13.75C11.875 13.2529 12.0721 12.775 12.4236 12.4236C12.775 12.0721 13.2529 11.875 13.75 11.875C14.2471 11.875 14.7229 12.0743 15.0743 12.4257C15.4257 12.7771 15.625 13.2529 15.625 13.75ZM22 11.5V20.5C22 20.8986 21.8414 21.28 21.5607 21.5607C21.28 21.8414 20.8986 22 20.5 22H11.5C11.1014 22 10.72 21.8414 10.4393 21.5607C10.1586 21.28 10 20.8986 10 20.5V11.5C10 11.1014 10.1586 10.72 10.4393 10.4393C10.72 10.1586 11.1014 10 11.5 10H20.5C20.8986 10 21.28 10.1586 21.5607 10.4393C21.8414 10.72 22 11.1014 22 11.5ZM21.25 11.5C21.25 11.3007 21.1707 11.11 21.0293 10.9707C20.8879 10.8314 20.6993 10.75 20.5 10.75H11.5C11.3007 10.75 11.11 10.8293 10.9707 10.9707C10.8314 11.1121 10.75 11.3007 10.75 11.5V20.5C10.75 20.6714 10.81 20.8364 10.9171 20.9714C11.0243 21.1043 11.1743 21.1964 11.3436 21.2329L15.3421 16.5079C15.4107 16.4286 15.5071 16.3814 15.6121 16.3771C15.7171 16.3707 15.82 16.4114 15.8929 16.4864L20.6436 21.2371C20.7743 21.2114 20.8943 21.1536 20.9929 21.0657C21.0914 20.9779 21.1664 20.8664 21.2093 20.7421L17.6093 17.1464L19.8443 14.6286C19.9129 14.5514 20.0114 14.5043 20.1143 14.5021C20.2171 14.5 20.3179 14.5407 20.3907 14.6114L21.25 15.4707V11.5Z" fill="white"/>
</svg>
