<svg width="24" height="24" viewBox="0 0 24 24" fill="none" xmlns="http://www.w3.org/2000/svg">
<g clip-path="url(#clip0_1910_1898)">
<path fill-rule="evenodd" clip-rule="evenodd" d="M9.07834 19.8033C9.30223 19.6101 9.63409 19.6426 9.81957 19.8758C10.0529 20.1692 10.3245 20.3952 10.6157 20.5468C10.9064 20.6982 11.2133 20.774 11.5199 20.774C11.8265 20.774 12.1334 20.6982 12.4241 20.5468C12.7153 20.3952 12.9869 20.1692 13.2203 19.8758C13.4058 19.6426 13.7376 19.6101 13.9615 19.8033C14.1854 19.9965 14.2165 20.3422 14.0311 20.5754C13.7113 20.9775 13.3264 21.3031 12.895 21.5278C12.4631 21.7528 11.9955 21.8707 11.5199 21.8707C11.0444 21.8707 10.5768 21.7528 10.1449 21.5278C9.71347 21.3031 9.32851 20.9775 9.00878 20.5754C8.8233 20.3422 8.85444 19.9965 9.07834 19.8033Z" fill="white"/>
<path fill-rule="evenodd" clip-rule="evenodd" d="M8.99914 19.7037C9.27583 19.465 9.68596 19.5051 9.91518 19.7933C10.1383 20.0739 10.3966 20.2881 10.6713 20.4312C10.9453 20.5739 11.2332 20.6447 11.5199 20.6447C11.8066 20.6447 12.0946 20.5739 12.3686 20.4312C12.6433 20.2881 12.9015 20.0739 13.1247 19.7933C13.3539 19.5051 13.764 19.465 14.0407 19.7037C14.3174 19.9425 14.3559 20.3697 14.1267 20.6579C13.7967 21.0728 13.3984 21.4102 12.9505 21.6435C12.5019 21.8771 12.0154 22 11.5199 22C11.0245 22 10.5379 21.8771 10.0894 21.6435C9.64141 21.4102 9.2431 21.0728 8.91318 20.6579C8.68396 20.3697 8.72244 19.9425 8.99914 19.7037ZM9.72397 19.9583C9.58223 19.7801 9.32863 19.7553 9.15754 19.9029C8.98644 20.0506 8.96264 20.3147 9.10438 20.4929C9.41393 20.8822 9.78552 21.1961 10.2004 21.4121C10.6157 21.6284 11.0643 21.7414 11.5199 21.7414C11.9755 21.7414 12.4242 21.6284 12.8395 21.4121C13.2543 21.1961 13.6259 20.8822 13.9355 20.493C14.0772 20.3147 14.0534 20.0506 13.8823 19.9029C13.7112 19.7553 13.4576 19.7801 13.3159 19.9583C13.0724 20.2645 12.7874 20.5022 12.4796 20.6625C12.1723 20.8226 11.8465 20.9033 11.5199 20.9033C11.1934 20.9033 10.8676 20.8226 10.5602 20.6625C10.2525 20.5022 9.96749 20.2645 9.72397 19.9583Z" fill="white"/>
<path fill-rule="evenodd" clip-rule="evenodd" d="M4.67643 9.25815C4.67643 5.32101 7.74044 2.12932 11.5201 2.12932C15.2998 2.12932 18.3638 5.32101 18.3638 9.25815L18.3638 13.5157C18.3638 14.0595 18.6587 14.5566 19.1256 14.7998L19.4591 14.9734C20.0784 15.296 20.4695 15.9553 20.4695 16.6765C20.4695 17.728 19.6512 18.5805 18.6417 18.5805L4.39854 18.5805C3.38904 18.5805 2.57068 17.728 2.57068 16.6765C2.57068 15.9553 2.96185 15.296 3.58109 14.9734L3.91456 14.7998C4.38148 14.5566 4.67643 14.0595 4.67643 13.5157L4.67643 9.25815ZM11.5201 3.22606C8.32193 3.22606 5.7293 5.92672 5.7293 9.25815L5.7293 13.5157C5.7293 14.4749 5.20904 15.3518 4.38542 15.7807L4.05195 15.9544C3.7894 16.0911 3.62355 16.3707 3.62355 16.6765C3.62355 17.1223 3.97053 17.4837 4.39854 17.4837L18.6417 17.4837C19.0697 17.4837 19.4166 17.1223 19.4166 16.6765C19.4166 16.3707 19.2508 16.0911 18.9882 15.9544L18.6548 15.7807C17.8312 15.3518 17.3109 14.4749 17.3109 13.5157L17.3109 9.25815C17.3109 5.92672 14.7183 3.22606 11.5201 3.22606Z" fill="white"/>
<path fill-rule="evenodd" clip-rule="evenodd" d="M4.55228 9.25815C4.55228 5.24959 7.67188 2 11.5201 2C15.3683 2 18.4879 5.24959 18.4879 9.25815L18.4879 13.5157C18.4879 14.0105 18.7563 14.4628 19.1812 14.6841L19.5146 14.8578C20.1759 15.2022 20.5937 15.9063 20.5937 16.6765C20.5937 17.7994 19.7197 18.7098 18.6417 18.7098L4.39854 18.7098C3.32048 18.7098 2.44653 17.7994 2.44653 16.6765C2.44653 15.9063 2.86427 15.2022 3.52557 14.8578L3.85904 14.6841C4.2839 14.4628 4.55228 14.0105 4.55228 13.5157L4.55228 9.25815ZM11.5201 2.25864C7.80901 2.25864 4.80057 5.39243 4.80057 9.25815L4.80057 13.5157C4.80057 14.1084 4.47906 14.6503 3.97008 14.9154L3.63661 15.0891C3.05942 15.3897 2.69482 16.0042 2.69482 16.6765C2.69482 17.6566 3.4576 18.4512 4.39854 18.4512L18.6417 18.4512C19.5826 18.4512 20.3454 17.6566 20.3454 16.6765C20.3454 16.0042 19.9808 15.3897 19.4036 15.0891L19.0701 14.9154C18.5611 14.6503 18.2396 14.1084 18.2396 13.5157L18.2396 9.25815C18.2396 5.39243 15.2312 2.25864 11.5201 2.25864ZM11.5201 3.35538C8.39049 3.35538 5.85344 5.99814 5.85344 9.25815L5.85344 13.5157C5.85344 14.5239 5.30662 15.4455 4.44094 15.8964L4.10747 16.0701C3.88698 16.1849 3.7477 16.4197 3.7477 16.6765C3.7477 17.0509 4.03909 17.3544 4.39854 17.3544L18.6417 17.3544C19.0011 17.3544 19.2925 17.0509 19.2925 16.6765C19.2925 16.4197 19.1532 16.1849 18.9327 16.0701L18.5993 15.8964C17.7336 15.4455 17.1868 14.5239 17.1868 13.5157L17.1868 9.25815C17.1868 5.99814 14.6497 3.35538 11.5201 3.35538ZM5.60515 9.25815C5.60515 5.8553 8.25336 3.09674 11.5201 3.09674C14.7868 3.09674 17.435 5.8553 17.435 9.25815L17.435 13.5157C17.435 14.4259 17.9287 15.258 18.7103 15.6651L19.0438 15.8387C19.3484 15.9974 19.5408 16.3217 19.5408 16.6765C19.5408 17.1937 19.1382 17.613 18.6417 17.613L4.39854 17.613C3.90196 17.613 3.49941 17.1937 3.49941 16.6765C3.49941 16.3217 3.69182 15.9974 3.99643 15.8387L4.3299 15.6651C5.11146 15.258 5.60515 14.4259 5.60515 13.5157L5.60515 9.25815Z" fill="white"/>
<circle cx="19.04" cy="4" r="4" fill="#FFE55F"/>
</g>
<defs>
<clipPath id="clip0_1910_1898">
<rect width="24" height="24" fill="white"/>
</clipPath>
</defs>
</svg>

