<svg width="24" height="24" viewBox="0 0 24 24" fill="none" xmlns="http://www.w3.org/2000/svg">
<path d="M20.5976 11.1581C21.1341 11.6516 21.1341 12.4935 20.5976 12.9581L20.2588 13.2774C19.8918 13.6258 19.7506 14.1774 19.9482 14.6419L20.1176 15.0774C20.4 15.7452 20.0329 16.5 19.3553 16.7032L18.9035 16.8194C18.4235 16.9645 18.0847 17.4 18.0565 17.9226L18.0282 18.3871C18 19.0258 17.4635 19.5194 16.8706 19.5194C16.8141 19.5194 16.7294 19.5194 16.6729 19.4903L16.2212 19.4032C16.1647 19.4032 16.08 19.3742 16.0235 19.3742C15.6 19.3742 15.2047 19.6065 15.0071 19.9839L14.7812 20.3903C14.5553 20.7968 14.16 21 13.7647 21C13.5388 21 13.2847 20.9129 13.0871 20.7677L12.72 20.4774C12.5224 20.3323 12.2682 20.2452 12.0424 20.2452C11.8165 20.2452 11.5624 20.3323 11.3647 20.4774L10.9976 20.7387C10.8 20.8839 10.5459 20.971 10.32 20.971C9.89647 20.971 9.50118 20.7387 9.30353 20.3323L9.07765 19.9258C8.88 19.5194 8.48471 19.2871 8.06118 19.2871C8.00471 19.2871 7.92 19.2871 7.86353 19.3161L7.32706 19.4903C7.27059 19.4903 7.18588 19.5194 7.12941 19.5194C6.50824 19.5194 6 19.0258 5.97176 18.3871L5.94353 17.9226C5.91529 17.4 5.57647 16.9645 5.09647 16.8194L4.64471 16.7032C3.96706 16.5 3.62824 15.7452 3.88235 15.0774L4.05176 14.6419C4.24941 14.1774 4.13647 13.6258 3.74118 13.2774L3.40235 12.9581C2.86588 12.4645 2.86588 11.6226 3.40235 11.1581L3.74118 10.8387C4.10824 10.4903 4.24941 9.93871 4.05176 9.47419L3.88235 9.03871C3.6 8.37097 3.96706 7.61613 4.64471 7.4129L5.09647 7.29677C5.57647 7.15161 5.91529 6.71613 5.94353 6.19355L5.97176 5.72903C6 5.09032 6.53647 4.59677 7.12941 4.59677C7.18588 4.59677 7.27059 4.59677 7.32706 4.62581L7.77882 4.7129C7.83529 4.7129 7.92 4.74194 7.97647 4.74194C8.4 4.74194 8.79529 4.50968 8.99294 4.13226L9.21882 3.72581C9.44471 3.31935 9.84 3.11613 10.2353 3.11613C10.4612 3.11613 10.7153 3.20323 10.9129 3.34839L11.28 3.63871C11.4776 3.78387 11.7318 3.87097 11.9576 3.87097C12.1835 3.87097 12.4376 3.78387 12.6353 3.63871L13.0871 3.23226C13.2847 3.0871 13.5388 3 13.7647 3C14.1882 3 14.5835 3.23226 14.7812 3.63871L15.0071 4.04516C15.2047 4.45161 15.6 4.68387 16.0235 4.68387C16.08 4.68387 16.1647 4.68387 16.2212 4.65484L16.6729 4.56774C16.7294 4.56774 16.8141 4.53871 16.8706 4.53871C17.4918 4.53871 18 5.03226 18.0282 5.67097L18.0565 6.13548C18.0847 6.65806 18.4235 7.09355 18.9035 7.23871L19.3553 7.35484C20.0329 7.55806 20.3718 8.3129 20.1176 8.98065L19.9482 9.41613C19.7506 9.88065 19.8635 10.4323 20.2588 10.7806L20.5976 11.1581ZM15.7412 10.3742L14.3294 8.92258L11.0824 12.2613L9.72706 10.8387L8.31529 12.2903L9.67059 13.7129L11.0824 15.1645L12.4941 13.7129L15.7412 10.3742Z" fill="#FFE55F"/>
</svg>
